<?xml version="1.0" encoding="UTF-8" standalone="no"?>
<!-- Created with Inkscape (http://www.inkscape.org/) -->

<svg
   version="1.1"
   id="svg2"
   width="755.90668"
   height="377.94666"
   viewBox="0 0 755.90668 377.94666"
   sodipodi:docname="Nova Logo Kuara - fundo branco.ai"
   xmlns:inkscape="http://www.inkscape.org/namespaces/inkscape"
   xmlns:sodipodi="http://sodipodi.sourceforge.net/DTD/sodipodi-0.dtd"
   xmlns="http://www.w3.org/2000/svg"
   xmlns:svg="http://www.w3.org/2000/svg">
  <defs
     id="defs6">
    <clipPath
       clipPathUnits="userSpaceOnUse"
       id="clipPath16">
      <path
         d="M 0,283.46 H 566.93 V 0 H 0 Z"
         id="path14" />
    </clipPath>
  </defs>
  <sodipodi:namedview
     id="namedview4"
     pagecolor="#ffffff"
     bordercolor="#000000"
     borderopacity="0.25"
     inkscape:showpageshadow="2"
     inkscape:pageopacity="0.0"
     inkscape:pagecheckerboard="0"
     inkscape:deskcolor="#d1d1d1" />
  <g
     id="g8"
     inkscape:groupmode="layer"
     inkscape:label="Nova Logo Kuara - fundo branco"
     transform="matrix(1.3333333,0,0,-1.3333333,0,377.94667)">
    <g
       id="g10">
      <g
         id="g12"
         clip-path="url(#clipPath16)">
        <g
           id="g18"
           transform="translate(158.3444,86.4829)">
          <path
             d="m 0,0 v 15.238 c 0,0.141 0.09,0.231 0.206,0.231 h 10.029 c 0.137,0 0.23,-0.09 0.23,-0.231 v -1.059 c 0,-0.118 -0.093,-0.231 -0.23,-0.231 H 1.751 V 8.807 h 6.178 c 0.138,0 0.23,-0.068 0.23,-0.208 V 7.518 C 8.159,7.399 8.067,7.309 7.929,7.309 H 1.751 V 1.29 h 8.484 c 0.137,0 0.23,-0.091 0.23,-0.231 V 0 c 0,-0.113 -0.093,-0.208 -0.23,-0.208 H 0.206 C 0.09,-0.208 0,-0.135 0,0"
             style="fill:#1d1e1b;fill-opacity:1;fill-rule:nonzero;stroke:none"
             id="path20" />
        </g>
        <g
           id="g22"
           transform="translate(175.2264,86.2746)">
          <path
             d="m 0,0 h -1.27 c -0.115,0 -0.205,0.073 -0.205,0.208 v 15.238 c 0,0.141 0.09,0.231 0.205,0.231 h 1.36 c 0.186,0 0.301,-0.068 0.394,-0.231 L 8.897,2.72 v 12.726 c 0,0.141 0.093,0.231 0.231,0.231 h 1.244 c 0.161,0 0.231,-0.09 0.231,-0.231 V 0.208 C 10.603,0.073 10.533,0 10.372,0 H 9.058 C 8.875,0 8.804,0.045 8.644,0.276 L 0.206,12.957 V 0.208 C 0.206,0.073 0.138,0 0,0"
             style="fill:#1d1e1b;fill-opacity:1;fill-rule:nonzero;stroke:none"
             id="path24" />
        </g>
        <g
           id="g26"
           transform="translate(202.2529,87.2882)">
          <path
             d="m 0,0 c -1.107,-0.873 -2.328,-1.244 -3.804,-1.244 -4.195,0 -7.101,3.091 -7.101,8.069 0,4.888 2.929,8.069 7.355,8.069 1.821,0 3.412,-0.394 4.749,-1.154 C 1.43,13.605 1.43,13.509 1.337,13.329 L 0.876,12.428 C 0.783,12.219 0.693,12.174 0.484,12.265 c -1.244,0.67 -2.582,1.086 -4.034,1.086 -3.32,0 -5.51,-2.607 -5.51,-6.526 0,-3.942 2.19,-6.543 5.51,-6.543 1.475,0 2.604,0.433 3.55,1.216 v 4.313 c 0,0.141 0.093,0.231 0.208,0.231 h 1.245 c 0.138,0 0.208,-0.09 0.208,-0.231 v -6.616 c 0,-0.135 -0.07,-0.209 -0.208,-0.209 H 0.208 C 0.093,-1.014 0,-0.94 0,-0.805 Z"
             style="fill:#1d1e1b;fill-opacity:1;fill-rule:nonzero;stroke:none"
             id="path28" />
        </g>
        <g
           id="g30"
           transform="translate(208.3485,87.2206)">
          <path
             d="M 0,0 C 0,0.67 0.484,1.177 1.154,1.177 1.844,1.177 2.351,0.67 2.351,0 2.351,-0.693 1.844,-1.177 1.154,-1.177 0.484,-1.177 0,-0.693 0,0"
             style="fill:#1d1e1b;fill-opacity:1;fill-rule:nonzero;stroke:none"
             id="path32" />
        </g>
        <g
           id="g34"
           transform="translate(222.7191,86.4829)">
          <path
             d="m 0,0 v 15.238 c 0,0.141 0.09,0.231 0.206,0.231 h 10.029 c 0.137,0 0.23,-0.09 0.23,-0.231 v -1.059 c 0,-0.118 -0.093,-0.231 -0.23,-0.231 H 1.751 V 8.807 h 6.178 c 0.138,0 0.23,-0.068 0.23,-0.208 V 7.518 C 8.159,7.399 8.067,7.309 7.929,7.309 H 1.751 V 1.29 h 8.484 c 0.137,0 0.23,-0.091 0.23,-0.231 V 0 c 0,-0.113 -0.093,-0.208 -0.23,-0.208 H 0.206 C 0.09,-0.208 0,-0.135 0,0"
             style="fill:#1d1e1b;fill-opacity:1;fill-rule:nonzero;stroke:none"
             id="path36" />
        </g>
        <g
           id="g38"
           transform="translate(238.1257,86.4829)">
          <path
             d="m 0,0 v 15.238 c 0,0.141 0.09,0.231 0.206,0.231 h 1.337 c 0.138,0 0.208,-0.09 0.208,-0.231 V 1.29 H 9.542 C 9.68,1.29 9.773,1.199 9.773,1.059 V 0 c 0,-0.113 -0.093,-0.208 -0.231,-0.208 H 0.206 C 0.09,-0.208 0,-0.135 0,0"
             style="fill:#1d1e1b;fill-opacity:1;fill-rule:nonzero;stroke:none"
             id="path40" />
        </g>
        <g
           id="g42"
           transform="translate(258.5103,105.6174)">
          <path
             d="m 0,0 c 0.115,0.163 0.208,0.231 0.414,0.231 h 1.36 c 0.231,0 0.301,-0.208 0.093,-0.417 L -0.16,-2.511 C -0.324,-2.675 -0.391,-2.72 -0.622,-2.72 h -0.783 c -0.208,0 -0.301,0.113 -0.138,0.321 z m -5.946,-19.134 v 15.237 c 0,0.141 0.09,0.231 0.205,0.231 H 4.288 c 0.138,0 0.231,-0.09 0.231,-0.231 v -1.058 c 0,-0.119 -0.093,-0.231 -0.231,-0.231 h -8.483 v -5.141 h 6.177 c 0.138,0 0.231,-0.068 0.231,-0.209 v -1.081 c 0,-0.118 -0.093,-0.208 -0.231,-0.208 h -6.177 v -6.02 h 8.483 c 0.138,0 0.231,-0.09 0.231,-0.231 v -1.058 c 0,-0.113 -0.093,-0.209 -0.231,-0.209 H -5.741 c -0.115,0 -0.205,0.073 -0.205,0.209"
             style="fill:#1d1e1b;fill-opacity:1;fill-rule:nonzero;stroke:none"
             id="path44" />
        </g>
        <g
           id="g46"
           transform="translate(273.2948,86.2746)">
          <path
             d="m 0,0 h -1.337 c -0.116,0 -0.209,0.073 -0.209,0.208 v 13.949 h -5.346 c -0.138,0 -0.231,0.112 -0.231,0.23 v 1.059 c 0,0.141 0.093,0.231 0.231,0.231 H 5.555 c 0.138,0 0.231,-0.09 0.231,-0.231 v -1.059 c 0,-0.118 -0.093,-0.23 -0.231,-0.23 H 0.208 V 0.208 C 0.208,0.073 0.138,0 0,0"
             style="fill:#1d1e1b;fill-opacity:1;fill-rule:nonzero;stroke:none"
             id="path48" />
        </g>
        <g
           id="g50"
           transform="translate(285.4523,100.4312)">
          <path
             d="m 0,0 v -6.251 h 2.72 c 2.351,0 3.897,1.222 3.897,3.137 C 6.617,-1.177 5.093,0 2.742,0 Z m -0.208,-14.157 h -1.338 c -0.115,0 -0.205,0.074 -0.205,0.209 V 1.29 c 0,0.14 0.09,0.23 0.205,0.23 h 4.381 c 3.39,0 5.626,-1.818 5.626,-4.634 0,-2.399 -1.661,-3.987 -4.243,-4.381 l 5.048,-6.29 c 0.186,-0.276 -0.023,-0.372 -0.298,-0.372 H 7.675 c -0.253,0 -0.343,0.074 -0.507,0.299 l -4.885,6.11 H 0 v -6.2 c 0,-0.135 -0.07,-0.209 -0.208,-0.209"
             style="fill:#1d1e1b;fill-opacity:1;fill-rule:nonzero;stroke:none"
             id="path52" />
        </g>
        <g
           id="g54"
           transform="translate(299.7553,101.7207)">
          <path
             d="M 0,0 C 0,0.141 0.09,0.231 0.206,0.231 H 1.543 C 1.681,0.231 1.751,0.141 1.751,0 v -15.238 c 0,-0.135 -0.07,-0.208 -0.208,-0.208 H 0.206 C 0.09,-15.446 0,-15.373 0,-15.238 Z"
             style="fill:#1d1e1b;fill-opacity:1;fill-rule:nonzero;stroke:none"
             id="path56" />
        </g>
        <g
           id="g58"
           transform="translate(307.0166,94.1131)">
          <path
             d="m 0,0 c 0,4.888 2.883,8.069 7.239,8.069 1.754,0 3.319,-0.439 4.589,-1.177 0.206,-0.112 0.228,-0.23 0.138,-0.388 L 11.504,5.603 C 11.411,5.395 11.344,5.327 11.113,5.44 10.006,6.042 8.647,6.526 7.239,6.526 3.99,6.526 1.844,3.919 1.844,0 c 0,-3.942 2.168,-6.543 5.51,-6.543 1.267,0 2.467,0.276 3.711,0.872 0.208,0.119 0.301,0.023 0.394,-0.163 l 0.392,-0.918 C 11.918,-6.915 11.896,-7.028 11.735,-7.101 10.327,-7.793 8.852,-8.069 7.239,-8.069 2.951,-8.069 0,-5 0,0"
             style="fill:#1d1e1b;fill-opacity:1;fill-rule:nonzero;stroke:none"
             id="path60" />
        </g>
        <g
           id="g62"
           transform="translate(329.3889,100.1102)">
          <path
             d="m 0,0 -2.883,-7.495 h 5.786 z m -5.671,-13.836 h -1.038 c -0.299,0 -0.392,0.096 -0.299,0.372 L -0.969,1.61 c 0.046,0.141 0.138,0.231 0.321,0.231 H 0.76 c 0.183,0 0.276,-0.09 0.347,-0.231 l 6.016,-15.074 c 0.116,-0.276 0,-0.372 -0.278,-0.372 H 5.693 c -0.253,0 -0.369,0.074 -0.462,0.299 l -1.774,4.612 h -6.892 l -1.777,-4.612 c -0.067,-0.203 -0.205,-0.299 -0.459,-0.299"
             style="fill:#1d1e1b;fill-opacity:1;fill-rule:nonzero;stroke:none"
             id="path64" />
        </g>
        <g
           id="g66"
           transform="translate(348.0982,86.4829)">
          <path
             d="m 0,0 v 15.238 c 0,0.141 0.09,0.231 0.206,0.231 h 10.029 c 0.137,0 0.23,-0.09 0.23,-0.231 v -1.059 c 0,-0.118 -0.093,-0.231 -0.23,-0.231 H 1.751 V 8.807 h 6.178 c 0.138,0 0.23,-0.068 0.23,-0.208 V 7.518 C 8.159,7.399 8.067,7.309 7.929,7.309 H 1.751 V 1.29 h 8.484 c 0.137,0 0.23,-0.091 0.23,-0.231 V 0 c 0,-0.113 -0.093,-0.208 -0.23,-0.208 H 0.206 C 0.09,-0.208 0,-0.135 0,0"
             style="fill:#1d1e1b;fill-opacity:1;fill-rule:nonzero;stroke:none"
             id="path68" />
        </g>
        <g
           id="g70"
           transform="translate(375.6794,100.1102)">
          <path
             d="m 0,0 -2.883,-7.495 h 5.786 z m -5.671,-13.836 h -1.038 c -0.299,0 -0.392,0.096 -0.299,0.372 L -0.969,1.61 c 0.045,0.141 0.138,0.231 0.324,0.231 H 0.76 c 0.183,0 0.276,-0.09 0.347,-0.231 l 6.016,-15.074 c 0.116,-0.276 0,-0.372 -0.278,-0.372 H 5.693 c -0.253,0 -0.369,0.074 -0.462,0.299 l -1.774,4.612 h -6.892 l -1.777,-4.612 c -0.067,-0.203 -0.205,-0.299 -0.459,-0.299"
             style="fill:#1d1e1b;fill-opacity:1;fill-rule:nonzero;stroke:none"
             id="path72" />
        </g>
        <g
           id="g74"
           transform="translate(386.6375,101.7207)">
          <path
             d="M 0,0 C 0,0.141 0.093,0.231 0.208,0.231 H 1.546 C 1.684,0.231 1.754,0.141 1.754,0 v -10.029 c 0,-2.556 1.658,-4.122 4.195,-4.122 2.534,0 4.195,1.566 4.195,4.122 V 0 c 0,0.141 0.093,0.231 0.231,0.231 h 1.338 c 0.138,0 0.205,-0.09 0.205,-0.231 v -9.911 c 0,-3.53 -2.28,-5.766 -5.969,-5.766 -3.666,0 -5.949,2.236 -5.949,5.766 z"
             style="fill:#1d1e1b;fill-opacity:1;fill-rule:nonzero;stroke:none"
             id="path76" />
        </g>
        <g
           id="g78"
           transform="translate(410.0234,86.2746)">
          <path
             d="m 0,0 h -1.337 c -0.116,0 -0.209,0.073 -0.209,0.208 v 13.949 h -5.346 c -0.138,0 -0.231,0.112 -0.231,0.23 v 1.059 c 0,0.141 0.093,0.231 0.231,0.231 H 5.555 c 0.138,0 0.231,-0.09 0.231,-0.231 v -1.059 c 0,-0.118 -0.093,-0.23 -0.231,-0.23 H 0.208 V 0.208 C 0.208,0.073 0.138,0 0,0"
             style="fill:#1d1e1b;fill-opacity:1;fill-rule:nonzero;stroke:none"
             id="path80" />
        </g>
        <g
           id="g82"
           transform="translate(430.9626,94.1131)">
          <path
             d="m 0,0 c 0,3.919 -2.098,6.526 -5.302,6.526 -3.204,0 -5.327,-2.607 -5.327,-6.526 0,-3.942 2.123,-6.543 5.327,-6.543 C -2.098,-6.543 0,-3.942 0,0 m -12.473,0 c 0,4.888 2.861,8.069 7.171,8.069 4.311,0 7.146,-3.181 7.146,-8.069 0,-4.91 -2.835,-8.069 -7.146,-8.069 -4.31,0 -7.171,3.159 -7.171,8.069"
             style="fill:#1d1e1b;fill-opacity:1;fill-rule:nonzero;stroke:none"
             id="path84" />
        </g>
        <g
           id="g86"
           transform="translate(439.826,86.2746)">
          <path
             d="m 0,0 h -1.27 c -0.115,0 -0.205,0.073 -0.205,0.208 v 15.238 c 0,0.141 0.09,0.231 0.205,0.231 h 1.476 c 0.185,0 0.301,-0.068 0.394,-0.231 L 6.983,2.168 13.368,15.446 c 0.093,0.186 0.231,0.231 0.394,0.231 h 1.29 c 0.115,0 0.208,-0.09 0.208,-0.231 V 0.208 C 15.26,0.073 15.167,0 15.052,0 H 13.785 C 13.647,0 13.554,0.073 13.554,0.208 V 12.383 L 7.653,0.276 C 7.537,0.045 7.422,0 7.239,0 H 6.546 C 6.36,0 6.245,0.045 6.132,0.276 L 0.206,12.383 V 0.208 C 0.206,0.073 0.138,0 0,0"
             style="fill:#1d1e1b;fill-opacity:1;fill-rule:nonzero;stroke:none"
             id="path88" />
        </g>
        <g
           id="g90"
           transform="translate(466.9228,100.1102)">
          <path
             d="m 0,0 -2.883,-7.495 h 5.786 z m -5.671,-13.836 h -1.038 c -0.299,0 -0.392,0.096 -0.299,0.372 L -0.969,1.61 c 0.046,0.141 0.138,0.231 0.321,0.231 H 0.76 c 0.183,0 0.276,-0.09 0.347,-0.231 l 6.016,-15.074 c 0.116,-0.276 0,-0.372 -0.278,-0.372 H 5.693 c -0.253,0 -0.369,0.074 -0.462,0.299 l -1.774,4.612 h -6.892 l -1.777,-4.612 c -0.067,-0.203 -0.205,-0.299 -0.459,-0.299"
             style="fill:#1d1e1b;fill-opacity:1;fill-rule:nonzero;stroke:none"
             id="path92" />
        </g>
        <g
           id="g94"
           transform="translate(482.3548,84.5233)">
          <path
             d="m 0,0 0.186,0.625 c 0.022,0.068 0.045,0.113 0.16,0.135 0.161,0.045 0.462,0.096 0.808,0.096 1.45,0 2.258,-0.648 2.258,-1.847 0,-1.385 -1.013,-2.072 -2.489,-2.072 -0.67,0 -1.244,0.157 -1.545,0.298 -0.138,0.068 -0.161,0.135 -0.116,0.276 l 0.231,0.67 c 0.045,0.113 0.116,0.158 0.254,0.09 0.208,-0.067 0.599,-0.208 1.084,-0.208 0.805,0 1.244,0.276 1.244,0.946 0,0.625 -0.484,0.828 -1.152,0.828 -0.301,0 -0.647,-0.045 -0.785,-0.045 C 0.023,-0.208 -0.045,-0.163 0,0 m -5.141,9.59 c 0,4.888 2.883,8.069 7.239,8.069 1.751,0 3.319,-0.439 4.589,-1.177 0.205,-0.112 0.228,-0.231 0.138,-0.388 L 6.363,15.193 C 6.27,14.984 6.203,14.917 5.972,15.029 c -1.107,0.603 -2.467,1.087 -3.874,1.087 -3.25,0 -5.395,-2.607 -5.395,-6.526 0,-3.942 2.168,-6.544 5.51,-6.544 1.27,0 2.466,0.276 3.711,0.873 0.208,0.118 0.301,0.023 0.394,-0.163 L 6.709,2.838 C 6.777,2.675 6.754,2.562 6.594,2.489 5.186,1.796 3.711,1.52 2.098,1.52 c -4.289,0 -7.239,3.069 -7.239,8.07"
             style="fill:#1d1e1b;fill-opacity:1;fill-rule:nonzero;stroke:none"
             id="path96" />
        </g>
        <g
           id="g98"
           transform="translate(499.5832,100.1102)">
          <path
             d="M 0,0 -2.883,-7.495 H 2.903 Z M -2.123,3.272 C -2.306,3.086 -2.466,3.041 -2.604,3.176 l -0.485,0.512 c -0.115,0.113 -0.07,0.276 0.068,0.411 0.76,0.806 1.36,1.222 2.03,1.222 0.876,0 1.498,-0.715 2.258,-0.715 0.391,0 0.577,0.141 0.898,0.484 0.254,0.276 0.369,0.35 0.532,0.186 L 3.227,4.747 C 3.342,4.629 3.297,4.516 3.156,4.33 2.444,3.548 2.005,3.272 1.337,3.272 c -0.83,0 -1.545,0.692 -2.19,0.692 -0.577,0 -0.898,-0.326 -1.27,-0.692 m -3.548,-17.108 h -1.038 c -0.299,0 -0.392,0.096 -0.299,0.372 L -0.969,1.61 c 0.046,0.141 0.138,0.231 0.321,0.231 H 0.76 c 0.183,0 0.276,-0.09 0.347,-0.231 l 6.016,-15.074 c 0.116,-0.276 0,-0.372 -0.278,-0.372 H 5.693 c -0.253,0 -0.369,0.074 -0.462,0.299 l -1.774,4.612 h -6.892 l -1.777,-4.612 c -0.067,-0.203 -0.205,-0.299 -0.459,-0.299"
             style="fill:#1d1e1b;fill-opacity:1;fill-rule:nonzero;stroke:none"
             id="path100" />
        </g>
        <g
           id="g102"
           transform="translate(522.3469,94.1131)">
          <path
             d="m 0,0 c 0,3.919 -2.098,6.526 -5.302,6.526 -3.204,0 -5.327,-2.607 -5.327,-6.526 0,-3.942 2.123,-6.543 5.327,-6.543 C -2.098,-6.543 0,-3.942 0,0 m -12.473,0 c 0,4.888 2.861,8.069 7.171,8.069 4.311,0 7.146,-3.181 7.146,-8.069 0,-4.91 -2.835,-8.069 -7.146,-8.069 -4.31,0 -7.171,3.159 -7.171,8.069"
             style="fill:#1d1e1b;fill-opacity:1;fill-rule:nonzero;stroke:none"
             id="path104" />
        </g>
        <g
           id="g106"
           transform="translate(173.1292,114.4354)">
          <path
             d="m 0,0 h -12.183 c -1.108,0 -1.883,0.664 -1.883,1.772 v 71.661 c 0,1.108 0.775,1.883 1.883,1.883 H 0 c 1.219,0 1.883,-0.775 1.883,-1.883 V 44.967 l 27.135,28.91 c 1.108,1.217 1.772,1.439 3.767,1.439 h 12.516 c 2.105,0 2.325,-1.219 0.997,-2.769 L 16.06,40.537 49.067,2.547 C 50.506,0.886 49.842,0 48.07,0 H 33.56 C 31.235,0 30.679,0.445 29.352,1.994 L 1.883,34.89 V 1.772 C 1.883,0.664 1.219,0 0,0"
             style="fill:#1d1e1b;fill-opacity:1;fill-rule:nonzero;stroke:none"
             id="path108" />
        </g>
        <g
           id="g110"
           transform="translate(228.267,187.8683)">
          <path
             d="m 0,0 c 0,1.108 0.886,1.883 1.88,1.883 h 12.297 c 1.106,0 1.88,-0.775 1.88,-1.883 v -44.193 c 0,-10.855 6.206,-16.613 15.619,-16.613 9.414,0 15.616,5.758 15.616,16.613 V 0 c 0,1.108 0.775,1.883 1.995,1.883 h 12.182 c 1.22,0 1.884,-0.775 1.884,-1.883 V -43.97 C 63.353,-62.8 50.837,-74.541 31.676,-74.541 12.513,-74.541 0,-62.8 0,-43.97 Z"
             style="fill:#1d1e1b;fill-opacity:1;fill-rule:nonzero;stroke:none"
             id="path112" />
        </g>
        <g
           id="g114"
           transform="translate(333.9079,174.2438)">
          <path
             d="M 0,0 -9.969,-27.357 H 9.969 Z M -24.588,-59.808 H -34.89 c -2.214,0 -3.211,0.775 -2.325,2.991 l 27.913,70.441 c 0.441,1.109 1.216,1.884 2.655,1.884 H 7.641 c 1.331,0 2.217,-0.664 2.77,-1.884 l 27.801,-70.441 c 0.886,-2.216 -0.111,-2.991 -2.328,-2.991 H 24.81 c -1.994,0 -3.211,0.444 -3.878,2.436 l -6.313,17.279 h -29.13 l -6.313,-17.279 c -0.553,-1.661 -1.88,-2.436 -3.764,-2.436"
             style="fill:#1d1e1b;fill-opacity:1;fill-rule:nonzero;stroke:none"
             id="path116" />
        </g>
        <g
           id="g118"
           transform="translate(397.9034,176.2382)">
          <path
             d="m 0,0 v -21.155 h 11.96 c 7.534,0 12.517,3.878 12.517,10.633 C 24.477,-3.655 19.494,0 12.072,0 Z m -1.883,-61.803 h -12.183 c -1.108,0 -1.883,0.664 -1.883,1.772 V 11.63 c 0,1.108 0.775,1.883 1.883,1.883 h 26.249 c 17.499,0 29.129,-9.302 29.129,-24.035 0,-10.855 -6.425,-17.943 -16.946,-20.821 L 45.52,-58.811 c 1.664,-2.217 -0.108,-2.992 -2.325,-2.992 H 30.46 c -1.995,0 -2.55,0.553 -3.989,2.436 L 8.197,-34.557 H 0 v -25.474 c 0,-1.108 -0.664,-1.772 -1.883,-1.772"
             style="fill:#1d1e1b;fill-opacity:1;fill-rule:nonzero;stroke:none"
             id="path120" />
        </g>
        <g
           id="g122"
           transform="translate(484.9398,174.2438)">
          <path
             d="M 0,0 -9.972,-27.357 H 9.966 Z m -24.591,-59.808 h -10.302 c -2.214,0 -3.211,0.775 -2.325,2.991 l 27.913,70.441 c 0.441,1.109 1.216,1.884 2.655,1.884 H 7.641 c 1.328,0 2.217,-0.664 2.77,-1.884 l 27.801,-70.441 c 0.883,-2.216 -0.114,-2.991 -2.331,-2.991 H 24.81 c -1.994,0 -3.214,0.444 -3.881,2.436 l -6.313,17.279 h -29.13 l -6.313,-17.279 c -0.553,-1.661 -1.88,-2.436 -3.764,-2.436"
             style="fill:#1d1e1b;fill-opacity:1;fill-rule:nonzero;stroke:none"
             id="path124" />
        </g>
        <g
           id="g126"
           transform="translate(102.2139,123.8643)">
          <path
             d="m 0,0 9.849,26.749 c 0.33,0.895 0.199,1.896 -0.349,2.678 -0.548,0.781 -1.444,1.245 -2.398,1.24 L -6.646,30.604 3.364,71.62 30.911,71.747 16.176,46.763 c -0.532,-0.902 -0.538,-2.021 -0.017,-2.93 0.522,-0.908 1.491,-1.467 2.539,-1.462 l 11.766,0.055 z M 36.146,48.277 23.797,48.22 38.532,73.204 c 0.532,0.902 0.539,2.021 0.017,2.93 -0.521,0.908 -1.491,1.467 -2.538,1.462 L 1.061,77.434 C -0.276,77.428 -1.438,76.512 -1.755,75.212 L -13.189,28.365 c -0.212,-0.871 -0.012,-1.791 0.543,-2.495 0.555,-0.704 1.403,-1.112 2.299,-1.108 l 13.28,0.061 -15.81,-42.936 c -0.503,-1.368 0.081,-2.897 1.368,-3.579 1.29,-0.685 2.883,-0.307 3.731,0.874 l 46.302,64.484 c 0.639,0.889 0.725,2.061 0.223,3.034 -0.502,0.973 -1.507,1.582 -2.601,1.577"
             style="fill:#004e41;fill-opacity:1;fill-rule:nonzero;stroke:none"
             id="path128" />
        </g>
        <g
           id="g130"
           transform="translate(85.5341,187.2362)">
          <path
             d="M 0,0 H 0.022 L 0.271,0.002 C 1.912,0.01 3.236,1.407 3.228,3.122 3.22,4.838 1.883,6.222 0.242,6.215 0.145,6.214 0.047,6.213 -0.05,6.212 -1.691,6.192 -3.005,4.785 -2.985,3.07 -2.966,1.362 -1.631,-0.008 0,0"
             style="fill:#004e41;fill-opacity:1;fill-rule:nonzero;stroke:none"
             id="path132" />
        </g>
        <g
           id="g134"
           transform="translate(86.1348,115.7847)">
          <path
             d="m 0,0 c -0.097,0 -0.195,-0.001 -0.292,-0.002 -1.641,-0.02 -2.955,-1.427 -2.935,-3.143 0.019,-1.707 1.354,-3.077 2.985,-3.07 l 0.022,10e-4 0.249,0.002 c 1.641,0.007 2.965,1.404 2.957,3.12 C 2.978,-1.377 1.641,0.008 0,0"
             style="fill:#004e41;fill-opacity:1;fill-rule:nonzero;stroke:none"
             id="path136" />
        </g>
        <g
           id="g138"
           transform="translate(78.6105,116.21)">
          <path
             d="m 0,0 c -17.156,2.923 -29.666,17.697 -29.747,35.13 -0.08,17.432 12.293,32.321 29.421,35.403 1.646,0.296 2.739,1.87 2.443,3.515 -0.295,1.645 -1.87,2.739 -3.515,2.443 -9.573,-1.722 -18.31,-6.793 -24.602,-14.278 -6.366,-7.575 -9.847,-17.203 -9.801,-27.111 0.046,-9.908 3.615,-19.504 10.051,-27.019 6.361,-7.428 15.144,-12.418 24.733,-14.051 0.177,-0.031 0.353,-0.044 0.526,-0.044 1.443,0.007 2.716,1.048 2.967,2.519 C 2.757,-1.844 1.648,-0.281 0,0"
             style="fill:#004e41;fill-opacity:1;fill-rule:nonzero;stroke:none"
             id="path140" />
        </g>
        <g
           id="g142"
           transform="translate(83.476,158.0774)">
          <path
             d="m 0,0 c 1.645,0.296 2.739,1.87 2.443,3.515 -0.296,1.646 -1.87,2.741 -3.515,2.444 -6.095,-1.097 -10.499,-6.392 -10.47,-12.59 0.029,-6.198 4.481,-11.452 10.586,-12.493 0.177,-0.03 0.352,-0.044 0.526,-0.043 1.442,0.007 2.715,1.048 2.966,2.519 0.281,1.648 -0.827,3.212 -2.475,3.493 -3.2,0.545 -5.533,3.3 -5.548,6.552 C -5.502,-3.352 -3.195,-0.575 0,0"
             style="fill:#004e41;fill-opacity:1;fill-rule:nonzero;stroke:none"
             id="path144" />
        </g>
        <g
           id="g146"
           transform="translate(81.0734,130.5646)">
          <path
             d="m 0,0 c -10.178,1.734 -17.599,10.499 -17.647,20.842 -0.048,10.343 7.292,19.177 17.454,21.005 1.645,0.296 2.739,1.87 2.443,3.515 -0.296,1.645 -1.87,2.739 -3.515,2.443 -6.244,-1.123 -11.942,-4.43 -16.045,-9.311 -4.151,-4.939 -6.421,-11.218 -6.392,-17.68 0.03,-6.461 2.358,-12.719 6.555,-17.62 4.148,-4.843 9.876,-8.097 16.13,-9.162 0.177,-0.03 0.353,-0.044 0.526,-0.044 1.443,0.007 2.716,1.048 2.967,2.52 C 2.756,-1.844 1.648,-0.281 0,0"
             style="fill:#004e41;fill-opacity:1;fill-rule:nonzero;stroke:none"
             id="path148" />
        </g>
        <g
           id="g150"
           transform="translate(118.373,167.6975)">
          <path
             d="m 0,0 c -0.521,0.909 -0.516,2.028 0.017,2.93 l 14.735,24.984 -27.547,-0.127 -10.011,-41.016 13.748,0.063 c 0.954,0.005 1.851,-0.459 2.399,-1.241 0.548,-0.781 0.679,-1.782 0.348,-2.678 L -16.159,-43.833 14.305,-1.407 2.539,-1.462 C 1.491,-1.467 0.521,-0.908 0,0"
             style="fill:#b87332;fill-opacity:1;fill-rule:nonzero;stroke:none"
             id="path152" />
        </g>
      </g>
    </g>
  </g>
</svg>
